# xmcd
#
# Track frame offsets:
#	150
#	18892
#	38862
#	54822
#	75811
#	98190
#	115184
#	143923
#	163461
#	179994
#	203420
#	220656
#
# Disc length: 3294 seconds
#
# Revision: 0
# Processed by: cddbd v1.5.2PL0 Copyright (c) Steve Scherf et al.
# Submitted via: EZCDAudioConverter 1.3.4.1
#
DISCID=990cdc0c
DTITLE=Liam Finn - The Nihilist
DYEAR=2014
DGENRE=
TTITLE0=Ocean Emmanuelle
TTITLE1=The Nihilist
TTITLE2=Snug As Fuck
TTITLE3=Helena Bonham Carter
TTITLE4=Burn Up The Road
TTITLE5=Dreary Droop
TTITLE6=Miracle Glance
TTITLE7=4 Track Stomper
TTITLE8=Arrow
TTITLE9=I
TTITLE10=Wild Animal
TTITLE11=Wrestle With Dad
EXTD=
EXTT0=
EXTT1=
EXTT2=
EXTT3=
EXTT4=
EXTT5=
EXTT6=
EXTT7=
EXTT8=
EXTT9=
EXTT10=
EXTT11=
PLAYORDER=
